<?xml version="1.0" encoding="UTF-8" standalone="no"?>
<svg width="282.222mm" height="282.222mm"
 viewBox="0 0 800 800"
 xmlns="http://www.w3.org/2000/svg" xmlns:xlink="http://www.w3.org/1999/xlink"  version="1.2" baseProfile="tiny">
<title>SVG 示例</title>
<desc>这是用 Qt 生成的 SVG 图片</desc>
<defs>
</defs>
<g fill="none" stroke="black" stroke-width="1" fill-rule="evenodd" stroke-linecap="square" stroke-linejoin="bevel" >

<g fill="#000000" fill-opacity="1" stroke="#000000" stroke-opacity="1" stroke-width="1" stroke-linecap="square" stroke-linejoin="bevel" transform="matrix(1,0,0,1,0,0)"
font-family="SimSun" font-size="9" font-weight="400" font-style="normal" 
>
<rect x="0" y="0" width="800" height="800"/>
</g>

<g fill="none" stroke="#ffffff" stroke-opacity="1" stroke-width="2" stroke-linecap="square" stroke-linejoin="bevel" transform="matrix(1,0,0,1,0,0)"
font-family="SimSun" font-size="9" font-weight="400" font-style="normal" 
>
<circle cx="400" cy="400" r="100"/>
<circle cx="400" cy="400" r="200"/>
<circle cx="400" cy="400" r="300"/>
<circle cx="400" cy="400" r="398"/>
<polyline fill="none" vector-effect="none" points="400,300 400,290 " />
<polyline fill="none" vector-effect="none" points="300,400 290,400 " />
<polyline fill="none" vector-effect="none" points="500,400 510,400 " />
<polyline fill="none" vector-effect="none" points="400,500 400,510 " />
</g>

<g fill="none" stroke="#ffffff" stroke-opacity="1" stroke-width="2" stroke-linecap="square" stroke-linejoin="bevel" transform="matrix(1,0,0,1,0,0)"
font-family="思源黑体" font-size="12" font-weight="400" font-style="normal" 
>
<text fill="#ffffff" fill-opacity="1" stroke="none" xml:space="preserve" x="396" y="287" font-family="思源黑体" font-size="12" font-weight="400" font-style="normal" 
 >N</text>
</g>

<g fill="none" stroke="#ffffff" stroke-opacity="1" stroke-width="2" stroke-linecap="square" stroke-linejoin="bevel" transform="matrix(0,1,-1,0,400,400)"
font-family="思源黑体" font-size="12" font-weight="400" font-style="normal" 
>
<text fill="#ffffff" fill-opacity="1" stroke="none" xml:space="preserve" x="-3" y="-113" font-family="思源黑体" font-size="12" font-weight="400" font-style="normal" 
 >E</text>
</g>

<g fill="none" stroke="#ffffff" stroke-opacity="1" stroke-width="2" stroke-linecap="square" stroke-linejoin="bevel" transform="matrix(1,0,0,1,0,0)"
font-family="思源黑体" font-size="12" font-weight="400" font-style="normal" 
>
</g>

<g fill="none" stroke="#ffffff" stroke-opacity="1" stroke-width="2" stroke-linecap="square" stroke-linejoin="bevel" transform="matrix(-1,0,0,-1,400,400)"
font-family="思源黑体" font-size="12" font-weight="400" font-style="normal" 
>
<text fill="#ffffff" fill-opacity="1" stroke="none" xml:space="preserve" x="-3" y="-113" font-family="思源黑体" font-size="12" font-weight="400" font-style="normal" 
 >S</text>
</g>

<g fill="none" stroke="#ffffff" stroke-opacity="1" stroke-width="2" stroke-linecap="square" stroke-linejoin="bevel" transform="matrix(1,0,0,1,0,0)"
font-family="思源黑体" font-size="12" font-weight="400" font-style="normal" 
>
</g>

<g fill="none" stroke="#ffffff" stroke-opacity="1" stroke-width="2" stroke-linecap="square" stroke-linejoin="bevel" transform="matrix(0,-1,1,0,400,400)"
font-family="思源黑体" font-size="12" font-weight="400" font-style="normal" 
>
<text fill="#ffffff" fill-opacity="1" stroke="none" xml:space="preserve" x="-5" y="-113" font-family="思源黑体" font-size="12" font-weight="400" font-style="normal" 
 >W</text>
</g>

<g fill="none" stroke="#ffffff" stroke-opacity="1" stroke-width="2" stroke-linecap="square" stroke-linejoin="bevel" transform="matrix(1,0,0,1,0,0)"
font-family="思源黑体" font-size="12" font-weight="400" font-style="normal" 
>
</g>

<g fill="none" stroke="#ffffff" stroke-opacity="1" stroke-width="2" stroke-linecap="square" stroke-linejoin="bevel" transform="matrix(1,0,0,1,400,400)"
font-family="思源黑体" font-size="12" font-weight="400" font-style="normal" 
>
<polyline fill="none" vector-effect="none" points="0,-300 0,-280 " />
<text fill="#ffffff" fill-opacity="1" stroke="none" xml:space="preserve" x="-3.5" y="-260.5" font-family="思源黑体" font-size="12" font-weight="400" font-style="normal" 
 >0</text>
</g>

<g fill="none" stroke="#ffffff" stroke-opacity="1" stroke-width="2" stroke-linecap="square" stroke-linejoin="bevel" transform="matrix(1,0,0,1,0,0)"
font-family="思源黑体" font-size="12" font-weight="400" font-style="normal" 
>
</g>

<g fill="none" stroke="#ffffff" stroke-opacity="1" stroke-width="2" stroke-linecap="square" stroke-linejoin="bevel" transform="matrix(0.994522,0.104528,-0.104528,0.994522,400,400)"
font-family="思源黑体" font-size="12" font-weight="400" font-style="normal" 
>
<polyline fill="none" vector-effect="none" points="0,-300 0,-290 " />
</g>

<g fill="none" stroke="#ffffff" stroke-opacity="1" stroke-width="2" stroke-linecap="square" stroke-linejoin="bevel" transform="matrix(1,0,0,1,0,0)"
font-family="思源黑体" font-size="12" font-weight="400" font-style="normal" 
>
</g>

<g fill="none" stroke="#ffffff" stroke-opacity="1" stroke-width="2" stroke-linecap="square" stroke-linejoin="bevel" transform="matrix(0.978148,0.207912,-0.207912,0.978148,400,400)"
font-family="思源黑体" font-size="12" font-weight="400" font-style="normal" 
>
<polyline fill="none" vector-effect="none" points="0,-300 0,-290 " />
</g>

<g fill="none" stroke="#ffffff" stroke-opacity="1" stroke-width="2" stroke-linecap="square" stroke-linejoin="bevel" transform="matrix(1,0,0,1,0,0)"
font-family="思源黑体" font-size="12" font-weight="400" font-style="normal" 
>
</g>

<g fill="none" stroke="#ffffff" stroke-opacity="1" stroke-width="2" stroke-linecap="square" stroke-linejoin="bevel" transform="matrix(0.951057,0.309017,-0.309017,0.951057,400,400)"
font-family="思源黑体" font-size="12" font-weight="400" font-style="normal" 
>
<polyline fill="none" vector-effect="none" points="0,-300 0,-290 " />
</g>

<g fill="none" stroke="#ffffff" stroke-opacity="1" stroke-width="2" stroke-linecap="square" stroke-linejoin="bevel" transform="matrix(1,0,0,1,0,0)"
font-family="思源黑体" font-size="12" font-weight="400" font-style="normal" 
>
</g>

<g fill="none" stroke="#ffffff" stroke-opacity="1" stroke-width="2" stroke-linecap="square" stroke-linejoin="bevel" transform="matrix(0.913545,0.406737,-0.406737,0.913545,400,400)"
font-family="思源黑体" font-size="12" font-weight="400" font-style="normal" 
>
<polyline fill="none" vector-effect="none" points="0,-300 0,-290 " />
</g>

<g fill="none" stroke="#ffffff" stroke-opacity="1" stroke-width="2" stroke-linecap="square" stroke-linejoin="bevel" transform="matrix(1,0,0,1,0,0)"
font-family="思源黑体" font-size="12" font-weight="400" font-style="normal" 
>
</g>

<g fill="none" stroke="#ffffff" stroke-opacity="1" stroke-width="2" stroke-linecap="square" stroke-linejoin="bevel" transform="matrix(0.866025,0.5,-0.5,0.866025,400,400)"
font-family="思源黑体" font-size="12" font-weight="400" font-style="normal" 
>
<polyline fill="none" vector-effect="none" points="0,-300 0,-280 " />
</g>

<g fill="none" stroke="#ffffff" stroke-opacity="1" stroke-width="2" stroke-linecap="square" stroke-linejoin="bevel" transform="matrix(0.866025,0.5,-0.5,0.866025,400,400)"
font-family="思源黑体" font-size="12" font-weight="400" font-style="normal" 
>
<text fill="#ffffff" fill-opacity="1" stroke="none" xml:space="preserve" x="-7" y="-260.5" font-family="思源黑体" font-size="12" font-weight="400" font-style="normal" 
 >30</text>
</g>

<g fill="none" stroke="#ffffff" stroke-opacity="1" stroke-width="2" stroke-linecap="square" stroke-linejoin="bevel" transform="matrix(1,0,0,1,0,0)"
font-family="思源黑体" font-size="12" font-weight="400" font-style="normal" 
>
</g>

<g fill="none" stroke="#ffffff" stroke-opacity="1" stroke-width="2" stroke-linecap="square" stroke-linejoin="bevel" transform="matrix(0.809017,0.587785,-0.587785,0.809017,400,400)"
font-family="思源黑体" font-size="12" font-weight="400" font-style="normal" 
>
<polyline fill="none" vector-effect="none" points="0,-300 0,-290 " />
</g>

<g fill="none" stroke="#ffffff" stroke-opacity="1" stroke-width="2" stroke-linecap="square" stroke-linejoin="bevel" transform="matrix(1,0,0,1,0,0)"
font-family="思源黑体" font-size="12" font-weight="400" font-style="normal" 
>
</g>

<g fill="none" stroke="#ffffff" stroke-opacity="1" stroke-width="2" stroke-linecap="square" stroke-linejoin="bevel" transform="matrix(0.743145,0.669131,-0.669131,0.743145,400,400)"
font-family="思源黑体" font-size="12" font-weight="400" font-style="normal" 
>
<polyline fill="none" vector-effect="none" points="0,-300 0,-290 " />
</g>

<g fill="none" stroke="#ffffff" stroke-opacity="1" stroke-width="2" stroke-linecap="square" stroke-linejoin="bevel" transform="matrix(1,0,0,1,0,0)"
font-family="思源黑体" font-size="12" font-weight="400" font-style="normal" 
>
</g>

<g fill="none" stroke="#ffffff" stroke-opacity="1" stroke-width="2" stroke-linecap="square" stroke-linejoin="bevel" transform="matrix(0.669131,0.743145,-0.743145,0.669131,400,400)"
font-family="思源黑体" font-size="12" font-weight="400" font-style="normal" 
>
<polyline fill="none" vector-effect="none" points="0,-300 0,-290 " />
</g>

<g fill="none" stroke="#ffffff" stroke-opacity="1" stroke-width="2" stroke-linecap="square" stroke-linejoin="bevel" transform="matrix(1,0,0,1,0,0)"
font-family="思源黑体" font-size="12" font-weight="400" font-style="normal" 
>
</g>

<g fill="none" stroke="#ffffff" stroke-opacity="1" stroke-width="2" stroke-linecap="square" stroke-linejoin="bevel" transform="matrix(0.587785,0.809017,-0.809017,0.587785,400,400)"
font-family="思源黑体" font-size="12" font-weight="400" font-style="normal" 
>
<polyline fill="none" vector-effect="none" points="0,-300 0,-290 " />
</g>

<g fill="none" stroke="#ffffff" stroke-opacity="1" stroke-width="2" stroke-linecap="square" stroke-linejoin="bevel" transform="matrix(1,0,0,1,0,0)"
font-family="思源黑体" font-size="12" font-weight="400" font-style="normal" 
>
</g>

<g fill="none" stroke="#ffffff" stroke-opacity="1" stroke-width="2" stroke-linecap="square" stroke-linejoin="bevel" transform="matrix(0.5,0.866025,-0.866025,0.5,400,400)"
font-family="思源黑体" font-size="12" font-weight="400" font-style="normal" 
>
<polyline fill="none" vector-effect="none" points="0,-300 0,-280 " />
</g>

<g fill="none" stroke="#ffffff" stroke-opacity="1" stroke-width="2" stroke-linecap="square" stroke-linejoin="bevel" transform="matrix(0.5,0.866025,-0.866025,0.5,400,400)"
font-family="思源黑体" font-size="12" font-weight="400" font-style="normal" 
>
<text fill="#ffffff" fill-opacity="1" stroke="none" xml:space="preserve" x="-7" y="-260.5" font-family="思源黑体" font-size="12" font-weight="400" font-style="normal" 
 >60</text>
</g>

<g fill="none" stroke="#ffffff" stroke-opacity="1" stroke-width="2" stroke-linecap="square" stroke-linejoin="bevel" transform="matrix(1,0,0,1,0,0)"
font-family="思源黑体" font-size="12" font-weight="400" font-style="normal" 
>
</g>

<g fill="none" stroke="#ffffff" stroke-opacity="1" stroke-width="2" stroke-linecap="square" stroke-linejoin="bevel" transform="matrix(0.406737,0.913545,-0.913545,0.406737,400,400)"
font-family="思源黑体" font-size="12" font-weight="400" font-style="normal" 
>
<polyline fill="none" vector-effect="none" points="0,-300 0,-290 " />
</g>

<g fill="none" stroke="#ffffff" stroke-opacity="1" stroke-width="2" stroke-linecap="square" stroke-linejoin="bevel" transform="matrix(1,0,0,1,0,0)"
font-family="思源黑体" font-size="12" font-weight="400" font-style="normal" 
>
</g>

<g fill="none" stroke="#ffffff" stroke-opacity="1" stroke-width="2" stroke-linecap="square" stroke-linejoin="bevel" transform="matrix(0.309017,0.951057,-0.951057,0.309017,400,400)"
font-family="思源黑体" font-size="12" font-weight="400" font-style="normal" 
>
<polyline fill="none" vector-effect="none" points="0,-300 0,-290 " />
</g>

<g fill="none" stroke="#ffffff" stroke-opacity="1" stroke-width="2" stroke-linecap="square" stroke-linejoin="bevel" transform="matrix(1,0,0,1,0,0)"
font-family="思源黑体" font-size="12" font-weight="400" font-style="normal" 
>
</g>

<g fill="none" stroke="#ffffff" stroke-opacity="1" stroke-width="2" stroke-linecap="square" stroke-linejoin="bevel" transform="matrix(0.207912,0.978148,-0.978148,0.207912,400,400)"
font-family="思源黑体" font-size="12" font-weight="400" font-style="normal" 
>
<polyline fill="none" vector-effect="none" points="0,-300 0,-290 " />
</g>

<g fill="none" stroke="#ffffff" stroke-opacity="1" stroke-width="2" stroke-linecap="square" stroke-linejoin="bevel" transform="matrix(1,0,0,1,0,0)"
font-family="思源黑体" font-size="12" font-weight="400" font-style="normal" 
>
</g>

<g fill="none" stroke="#ffffff" stroke-opacity="1" stroke-width="2" stroke-linecap="square" stroke-linejoin="bevel" transform="matrix(0.104528,0.994522,-0.994522,0.104528,400,400)"
font-family="思源黑体" font-size="12" font-weight="400" font-style="normal" 
>
<polyline fill="none" vector-effect="none" points="0,-300 0,-290 " />
</g>

<g fill="none" stroke="#ffffff" stroke-opacity="1" stroke-width="2" stroke-linecap="square" stroke-linejoin="bevel" transform="matrix(1,0,0,1,0,0)"
font-family="思源黑体" font-size="12" font-weight="400" font-style="normal" 
>
</g>

<g fill="none" stroke="#ffffff" stroke-opacity="1" stroke-width="2" stroke-linecap="square" stroke-linejoin="bevel" transform="matrix(0,1,-1,0,400,400)"
font-family="思源黑体" font-size="12" font-weight="400" font-style="normal" 
>
<polyline fill="none" vector-effect="none" points="0,-300 0,-280 " />
<text fill="#ffffff" fill-opacity="1" stroke="none" xml:space="preserve" x="-7" y="-260.5" font-family="思源黑体" font-size="12" font-weight="400" font-style="normal" 
 >90</text>
</g>

<g fill="none" stroke="#ffffff" stroke-opacity="1" stroke-width="2" stroke-linecap="square" stroke-linejoin="bevel" transform="matrix(1,0,0,1,0,0)"
font-family="思源黑体" font-size="12" font-weight="400" font-style="normal" 
>
</g>

<g fill="none" stroke="#ffffff" stroke-opacity="1" stroke-width="2" stroke-linecap="square" stroke-linejoin="bevel" transform="matrix(-0.104528,0.994522,-0.994522,-0.104528,400,400)"
font-family="思源黑体" font-size="12" font-weight="400" font-style="normal" 
>
<polyline fill="none" vector-effect="none" points="0,-300 0,-290 " />
</g>

<g fill="none" stroke="#ffffff" stroke-opacity="1" stroke-width="2" stroke-linecap="square" stroke-linejoin="bevel" transform="matrix(1,0,0,1,0,0)"
font-family="思源黑体" font-size="12" font-weight="400" font-style="normal" 
>
</g>

<g fill="none" stroke="#ffffff" stroke-opacity="1" stroke-width="2" stroke-linecap="square" stroke-linejoin="bevel" transform="matrix(-0.207912,0.978148,-0.978148,-0.207912,400,400)"
font-family="思源黑体" font-size="12" font-weight="400" font-style="normal" 
>
<polyline fill="none" vector-effect="none" points="0,-300 0,-290 " />
</g>

<g fill="none" stroke="#ffffff" stroke-opacity="1" stroke-width="2" stroke-linecap="square" stroke-linejoin="bevel" transform="matrix(1,0,0,1,0,0)"
font-family="思源黑体" font-size="12" font-weight="400" font-style="normal" 
>
</g>

<g fill="none" stroke="#ffffff" stroke-opacity="1" stroke-width="2" stroke-linecap="square" stroke-linejoin="bevel" transform="matrix(-0.309017,0.951057,-0.951057,-0.309017,400,400)"
font-family="思源黑体" font-size="12" font-weight="400" font-style="normal" 
>
<polyline fill="none" vector-effect="none" points="0,-300 0,-290 " />
</g>

<g fill="none" stroke="#ffffff" stroke-opacity="1" stroke-width="2" stroke-linecap="square" stroke-linejoin="bevel" transform="matrix(1,0,0,1,0,0)"
font-family="思源黑体" font-size="12" font-weight="400" font-style="normal" 
>
</g>

<g fill="none" stroke="#ffffff" stroke-opacity="1" stroke-width="2" stroke-linecap="square" stroke-linejoin="bevel" transform="matrix(-0.406737,0.913545,-0.913545,-0.406737,400,400)"
font-family="思源黑体" font-size="12" font-weight="400" font-style="normal" 
>
<polyline fill="none" vector-effect="none" points="0,-300 0,-290 " />
</g>

<g fill="none" stroke="#ffffff" stroke-opacity="1" stroke-width="2" stroke-linecap="square" stroke-linejoin="bevel" transform="matrix(1,0,0,1,0,0)"
font-family="思源黑体" font-size="12" font-weight="400" font-style="normal" 
>
</g>

<g fill="none" stroke="#ffffff" stroke-opacity="1" stroke-width="2" stroke-linecap="square" stroke-linejoin="bevel" transform="matrix(-0.5,0.866025,-0.866025,-0.5,400,400)"
font-family="思源黑体" font-size="12" font-weight="400" font-style="normal" 
>
<polyline fill="none" vector-effect="none" points="0,-300 0,-280 " />
</g>

<g fill="none" stroke="#ffffff" stroke-opacity="1" stroke-width="2" stroke-linecap="square" stroke-linejoin="bevel" transform="matrix(-0.5,0.866025,-0.866025,-0.5,400,400)"
font-family="思源黑体" font-size="12" font-weight="400" font-style="normal" 
>
<text fill="#ffffff" fill-opacity="1" stroke="none" xml:space="preserve" x="-10.5" y="-260.5" font-family="思源黑体" font-size="12" font-weight="400" font-style="normal" 
 >120</text>
</g>

<g fill="none" stroke="#ffffff" stroke-opacity="1" stroke-width="2" stroke-linecap="square" stroke-linejoin="bevel" transform="matrix(1,0,0,1,0,0)"
font-family="思源黑体" font-size="12" font-weight="400" font-style="normal" 
>
</g>

<g fill="none" stroke="#ffffff" stroke-opacity="1" stroke-width="2" stroke-linecap="square" stroke-linejoin="bevel" transform="matrix(-0.587785,0.809017,-0.809017,-0.587785,400,400)"
font-family="思源黑体" font-size="12" font-weight="400" font-style="normal" 
>
<polyline fill="none" vector-effect="none" points="0,-300 0,-290 " />
</g>

<g fill="none" stroke="#ffffff" stroke-opacity="1" stroke-width="2" stroke-linecap="square" stroke-linejoin="bevel" transform="matrix(1,0,0,1,0,0)"
font-family="思源黑体" font-size="12" font-weight="400" font-style="normal" 
>
</g>

<g fill="none" stroke="#ffffff" stroke-opacity="1" stroke-width="2" stroke-linecap="square" stroke-linejoin="bevel" transform="matrix(-0.669131,0.743145,-0.743145,-0.669131,400,400)"
font-family="思源黑体" font-size="12" font-weight="400" font-style="normal" 
>
<polyline fill="none" vector-effect="none" points="0,-300 0,-290 " />
</g>

<g fill="none" stroke="#ffffff" stroke-opacity="1" stroke-width="2" stroke-linecap="square" stroke-linejoin="bevel" transform="matrix(1,0,0,1,0,0)"
font-family="思源黑体" font-size="12" font-weight="400" font-style="normal" 
>
</g>

<g fill="none" stroke="#ffffff" stroke-opacity="1" stroke-width="2" stroke-linecap="square" stroke-linejoin="bevel" transform="matrix(-0.743145,0.669131,-0.669131,-0.743145,400,400)"
font-family="思源黑体" font-size="12" font-weight="400" font-style="normal" 
>
<polyline fill="none" vector-effect="none" points="0,-300 0,-290 " />
</g>

<g fill="none" stroke="#ffffff" stroke-opacity="1" stroke-width="2" stroke-linecap="square" stroke-linejoin="bevel" transform="matrix(1,0,0,1,0,0)"
font-family="思源黑体" font-size="12" font-weight="400" font-style="normal" 
>
</g>

<g fill="none" stroke="#ffffff" stroke-opacity="1" stroke-width="2" stroke-linecap="square" stroke-linejoin="bevel" transform="matrix(-0.809017,0.587785,-0.587785,-0.809017,400,400)"
font-family="思源黑体" font-size="12" font-weight="400" font-style="normal" 
>
<polyline fill="none" vector-effect="none" points="0,-300 0,-290 " />
</g>

<g fill="none" stroke="#ffffff" stroke-opacity="1" stroke-width="2" stroke-linecap="square" stroke-linejoin="bevel" transform="matrix(1,0,0,1,0,0)"
font-family="思源黑体" font-size="12" font-weight="400" font-style="normal" 
>
</g>

<g fill="none" stroke="#ffffff" stroke-opacity="1" stroke-width="2" stroke-linecap="square" stroke-linejoin="bevel" transform="matrix(-0.866025,0.5,-0.5,-0.866025,400,400)"
font-family="思源黑体" font-size="12" font-weight="400" font-style="normal" 
>
<polyline fill="none" vector-effect="none" points="0,-300 0,-280 " />
</g>

<g fill="none" stroke="#ffffff" stroke-opacity="1" stroke-width="2" stroke-linecap="square" stroke-linejoin="bevel" transform="matrix(-0.866025,0.5,-0.5,-0.866025,400,400)"
font-family="思源黑体" font-size="12" font-weight="400" font-style="normal" 
>
<text fill="#ffffff" fill-opacity="1" stroke="none" xml:space="preserve" x="-10.5" y="-260.5" font-family="思源黑体" font-size="12" font-weight="400" font-style="normal" 
 >150</text>
</g>

<g fill="none" stroke="#ffffff" stroke-opacity="1" stroke-width="2" stroke-linecap="square" stroke-linejoin="bevel" transform="matrix(1,0,0,1,0,0)"
font-family="思源黑体" font-size="12" font-weight="400" font-style="normal" 
>
</g>

<g fill="none" stroke="#ffffff" stroke-opacity="1" stroke-width="2" stroke-linecap="square" stroke-linejoin="bevel" transform="matrix(-0.913545,0.406737,-0.406737,-0.913545,400,400)"
font-family="思源黑体" font-size="12" font-weight="400" font-style="normal" 
>
<polyline fill="none" vector-effect="none" points="0,-300 0,-290 " />
</g>

<g fill="none" stroke="#ffffff" stroke-opacity="1" stroke-width="2" stroke-linecap="square" stroke-linejoin="bevel" transform="matrix(1,0,0,1,0,0)"
font-family="思源黑体" font-size="12" font-weight="400" font-style="normal" 
>
</g>

<g fill="none" stroke="#ffffff" stroke-opacity="1" stroke-width="2" stroke-linecap="square" stroke-linejoin="bevel" transform="matrix(-0.951057,0.309017,-0.309017,-0.951057,400,400)"
font-family="思源黑体" font-size="12" font-weight="400" font-style="normal" 
>
<polyline fill="none" vector-effect="none" points="0,-300 0,-290 " />
</g>

<g fill="none" stroke="#ffffff" stroke-opacity="1" stroke-width="2" stroke-linecap="square" stroke-linejoin="bevel" transform="matrix(1,0,0,1,0,0)"
font-family="思源黑体" font-size="12" font-weight="400" font-style="normal" 
>
</g>

<g fill="none" stroke="#ffffff" stroke-opacity="1" stroke-width="2" stroke-linecap="square" stroke-linejoin="bevel" transform="matrix(-0.978148,0.207912,-0.207912,-0.978148,400,400)"
font-family="思源黑体" font-size="12" font-weight="400" font-style="normal" 
>
<polyline fill="none" vector-effect="none" points="0,-300 0,-290 " />
</g>

<g fill="none" stroke="#ffffff" stroke-opacity="1" stroke-width="2" stroke-linecap="square" stroke-linejoin="bevel" transform="matrix(1,0,0,1,0,0)"
font-family="思源黑体" font-size="12" font-weight="400" font-style="normal" 
>
</g>

<g fill="none" stroke="#ffffff" stroke-opacity="1" stroke-width="2" stroke-linecap="square" stroke-linejoin="bevel" transform="matrix(-0.994522,0.104528,-0.104528,-0.994522,400,400)"
font-family="思源黑体" font-size="12" font-weight="400" font-style="normal" 
>
<polyline fill="none" vector-effect="none" points="0,-300 0,-290 " />
</g>

<g fill="none" stroke="#ffffff" stroke-opacity="1" stroke-width="2" stroke-linecap="square" stroke-linejoin="bevel" transform="matrix(1,0,0,1,0,0)"
font-family="思源黑体" font-size="12" font-weight="400" font-style="normal" 
>
</g>

<g fill="none" stroke="#ffffff" stroke-opacity="1" stroke-width="2" stroke-linecap="square" stroke-linejoin="bevel" transform="matrix(-1,0,0,-1,400,400)"
font-family="思源黑体" font-size="12" font-weight="400" font-style="normal" 
>
<polyline fill="none" vector-effect="none" points="0,-300 0,-280 " />
<text fill="#ffffff" fill-opacity="1" stroke="none" xml:space="preserve" x="-10.5" y="-260.5" font-family="思源黑体" font-size="12" font-weight="400" font-style="normal" 
 >180</text>
</g>

<g fill="none" stroke="#ffffff" stroke-opacity="1" stroke-width="2" stroke-linecap="square" stroke-linejoin="bevel" transform="matrix(1,0,0,1,0,0)"
font-family="思源黑体" font-size="12" font-weight="400" font-style="normal" 
>
</g>

<g fill="none" stroke="#ffffff" stroke-opacity="1" stroke-width="2" stroke-linecap="square" stroke-linejoin="bevel" transform="matrix(-0.994522,-0.104528,0.104528,-0.994522,400,400)"
font-family="思源黑体" font-size="12" font-weight="400" font-style="normal" 
>
<polyline fill="none" vector-effect="none" points="0,-300 0,-290 " />
</g>

<g fill="none" stroke="#ffffff" stroke-opacity="1" stroke-width="2" stroke-linecap="square" stroke-linejoin="bevel" transform="matrix(1,0,0,1,0,0)"
font-family="思源黑体" font-size="12" font-weight="400" font-style="normal" 
>
</g>

<g fill="none" stroke="#ffffff" stroke-opacity="1" stroke-width="2" stroke-linecap="square" stroke-linejoin="bevel" transform="matrix(-0.978148,-0.207912,0.207912,-0.978148,400,400)"
font-family="思源黑体" font-size="12" font-weight="400" font-style="normal" 
>
<polyline fill="none" vector-effect="none" points="0,-300 0,-290 " />
</g>

<g fill="none" stroke="#ffffff" stroke-opacity="1" stroke-width="2" stroke-linecap="square" stroke-linejoin="bevel" transform="matrix(1,0,0,1,0,0)"
font-family="思源黑体" font-size="12" font-weight="400" font-style="normal" 
>
</g>

<g fill="none" stroke="#ffffff" stroke-opacity="1" stroke-width="2" stroke-linecap="square" stroke-linejoin="bevel" transform="matrix(-0.951057,-0.309017,0.309017,-0.951057,400,400)"
font-family="思源黑体" font-size="12" font-weight="400" font-style="normal" 
>
<polyline fill="none" vector-effect="none" points="0,-300 0,-290 " />
</g>

<g fill="none" stroke="#ffffff" stroke-opacity="1" stroke-width="2" stroke-linecap="square" stroke-linejoin="bevel" transform="matrix(1,0,0,1,0,0)"
font-family="思源黑体" font-size="12" font-weight="400" font-style="normal" 
>
</g>

<g fill="none" stroke="#ffffff" stroke-opacity="1" stroke-width="2" stroke-linecap="square" stroke-linejoin="bevel" transform="matrix(-0.913545,-0.406737,0.406737,-0.913545,400,400)"
font-family="思源黑体" font-size="12" font-weight="400" font-style="normal" 
>
<polyline fill="none" vector-effect="none" points="0,-300 0,-290 " />
</g>

<g fill="none" stroke="#ffffff" stroke-opacity="1" stroke-width="2" stroke-linecap="square" stroke-linejoin="bevel" transform="matrix(1,0,0,1,0,0)"
font-family="思源黑体" font-size="12" font-weight="400" font-style="normal" 
>
</g>

<g fill="none" stroke="#ffffff" stroke-opacity="1" stroke-width="2" stroke-linecap="square" stroke-linejoin="bevel" transform="matrix(-0.866025,-0.5,0.5,-0.866025,400,400)"
font-family="思源黑体" font-size="12" font-weight="400" font-style="normal" 
>
<polyline fill="none" vector-effect="none" points="0,-300 0,-280 " />
</g>

<g fill="none" stroke="#ffffff" stroke-opacity="1" stroke-width="2" stroke-linecap="square" stroke-linejoin="bevel" transform="matrix(-0.866025,-0.5,0.5,-0.866025,400,400)"
font-family="思源黑体" font-size="12" font-weight="400" font-style="normal" 
>
<text fill="#ffffff" fill-opacity="1" stroke="none" xml:space="preserve" x="-10.5" y="-260.5" font-family="思源黑体" font-size="12" font-weight="400" font-style="normal" 
 >210</text>
</g>

<g fill="none" stroke="#ffffff" stroke-opacity="1" stroke-width="2" stroke-linecap="square" stroke-linejoin="bevel" transform="matrix(1,0,0,1,0,0)"
font-family="思源黑体" font-size="12" font-weight="400" font-style="normal" 
>
</g>

<g fill="none" stroke="#ffffff" stroke-opacity="1" stroke-width="2" stroke-linecap="square" stroke-linejoin="bevel" transform="matrix(-0.809017,-0.587785,0.587785,-0.809017,400,400)"
font-family="思源黑体" font-size="12" font-weight="400" font-style="normal" 
>
<polyline fill="none" vector-effect="none" points="0,-300 0,-290 " />
</g>

<g fill="none" stroke="#ffffff" stroke-opacity="1" stroke-width="2" stroke-linecap="square" stroke-linejoin="bevel" transform="matrix(1,0,0,1,0,0)"
font-family="思源黑体" font-size="12" font-weight="400" font-style="normal" 
>
</g>

<g fill="none" stroke="#ffffff" stroke-opacity="1" stroke-width="2" stroke-linecap="square" stroke-linejoin="bevel" transform="matrix(-0.743145,-0.669131,0.669131,-0.743145,400,400)"
font-family="思源黑体" font-size="12" font-weight="400" font-style="normal" 
>
<polyline fill="none" vector-effect="none" points="0,-300 0,-290 " />
</g>

<g fill="none" stroke="#ffffff" stroke-opacity="1" stroke-width="2" stroke-linecap="square" stroke-linejoin="bevel" transform="matrix(1,0,0,1,0,0)"
font-family="思源黑体" font-size="12" font-weight="400" font-style="normal" 
>
</g>

<g fill="none" stroke="#ffffff" stroke-opacity="1" stroke-width="2" stroke-linecap="square" stroke-linejoin="bevel" transform="matrix(-0.669131,-0.743145,0.743145,-0.669131,400,400)"
font-family="思源黑体" font-size="12" font-weight="400" font-style="normal" 
>
<polyline fill="none" vector-effect="none" points="0,-300 0,-290 " />
</g>

<g fill="none" stroke="#ffffff" stroke-opacity="1" stroke-width="2" stroke-linecap="square" stroke-linejoin="bevel" transform="matrix(1,0,0,1,0,0)"
font-family="思源黑体" font-size="12" font-weight="400" font-style="normal" 
>
</g>

<g fill="none" stroke="#ffffff" stroke-opacity="1" stroke-width="2" stroke-linecap="square" stroke-linejoin="bevel" transform="matrix(-0.587785,-0.809017,0.809017,-0.587785,400,400)"
font-family="思源黑体" font-size="12" font-weight="400" font-style="normal" 
>
<polyline fill="none" vector-effect="none" points="0,-300 0,-290 " />
</g>

<g fill="none" stroke="#ffffff" stroke-opacity="1" stroke-width="2" stroke-linecap="square" stroke-linejoin="bevel" transform="matrix(1,0,0,1,0,0)"
font-family="思源黑体" font-size="12" font-weight="400" font-style="normal" 
>
</g>

<g fill="none" stroke="#ffffff" stroke-opacity="1" stroke-width="2" stroke-linecap="square" stroke-linejoin="bevel" transform="matrix(-0.5,-0.866025,0.866025,-0.5,400,400)"
font-family="思源黑体" font-size="12" font-weight="400" font-style="normal" 
>
<polyline fill="none" vector-effect="none" points="0,-300 0,-280 " />
</g>

<g fill="none" stroke="#ffffff" stroke-opacity="1" stroke-width="2" stroke-linecap="square" stroke-linejoin="bevel" transform="matrix(-0.5,-0.866025,0.866025,-0.5,400,400)"
font-family="思源黑体" font-size="12" font-weight="400" font-style="normal" 
>
<text fill="#ffffff" fill-opacity="1" stroke="none" xml:space="preserve" x="-10.5" y="-260.5" font-family="思源黑体" font-size="12" font-weight="400" font-style="normal" 
 >240</text>
</g>

<g fill="none" stroke="#ffffff" stroke-opacity="1" stroke-width="2" stroke-linecap="square" stroke-linejoin="bevel" transform="matrix(1,0,0,1,0,0)"
font-family="思源黑体" font-size="12" font-weight="400" font-style="normal" 
>
</g>

<g fill="none" stroke="#ffffff" stroke-opacity="1" stroke-width="2" stroke-linecap="square" stroke-linejoin="bevel" transform="matrix(-0.406737,-0.913545,0.913545,-0.406737,400,400)"
font-family="思源黑体" font-size="12" font-weight="400" font-style="normal" 
>
<polyline fill="none" vector-effect="none" points="0,-300 0,-290 " />
</g>

<g fill="none" stroke="#ffffff" stroke-opacity="1" stroke-width="2" stroke-linecap="square" stroke-linejoin="bevel" transform="matrix(1,0,0,1,0,0)"
font-family="思源黑体" font-size="12" font-weight="400" font-style="normal" 
>
</g>

<g fill="none" stroke="#ffffff" stroke-opacity="1" stroke-width="2" stroke-linecap="square" stroke-linejoin="bevel" transform="matrix(-0.309017,-0.951057,0.951057,-0.309017,400,400)"
font-family="思源黑体" font-size="12" font-weight="400" font-style="normal" 
>
<polyline fill="none" vector-effect="none" points="0,-300 0,-290 " />
</g>

<g fill="none" stroke="#ffffff" stroke-opacity="1" stroke-width="2" stroke-linecap="square" stroke-linejoin="bevel" transform="matrix(1,0,0,1,0,0)"
font-family="思源黑体" font-size="12" font-weight="400" font-style="normal" 
>
</g>

<g fill="none" stroke="#ffffff" stroke-opacity="1" stroke-width="2" stroke-linecap="square" stroke-linejoin="bevel" transform="matrix(-0.207912,-0.978148,0.978148,-0.207912,400,400)"
font-family="思源黑体" font-size="12" font-weight="400" font-style="normal" 
>
<polyline fill="none" vector-effect="none" points="0,-300 0,-290 " />
</g>

<g fill="none" stroke="#ffffff" stroke-opacity="1" stroke-width="2" stroke-linecap="square" stroke-linejoin="bevel" transform="matrix(1,0,0,1,0,0)"
font-family="思源黑体" font-size="12" font-weight="400" font-style="normal" 
>
</g>

<g fill="none" stroke="#ffffff" stroke-opacity="1" stroke-width="2" stroke-linecap="square" stroke-linejoin="bevel" transform="matrix(-0.104528,-0.994522,0.994522,-0.104528,400,400)"
font-family="思源黑体" font-size="12" font-weight="400" font-style="normal" 
>
<polyline fill="none" vector-effect="none" points="0,-300 0,-290 " />
</g>

<g fill="none" stroke="#ffffff" stroke-opacity="1" stroke-width="2" stroke-linecap="square" stroke-linejoin="bevel" transform="matrix(1,0,0,1,0,0)"
font-family="思源黑体" font-size="12" font-weight="400" font-style="normal" 
>
</g>

<g fill="none" stroke="#ffffff" stroke-opacity="1" stroke-width="2" stroke-linecap="square" stroke-linejoin="bevel" transform="matrix(0,-1,1,0,400,400)"
font-family="思源黑体" font-size="12" font-weight="400" font-style="normal" 
>
<polyline fill="none" vector-effect="none" points="0,-300 0,-280 " />
<text fill="#ffffff" fill-opacity="1" stroke="none" xml:space="preserve" x="-10.5" y="-260.5" font-family="思源黑体" font-size="12" font-weight="400" font-style="normal" 
 >270</text>
</g>

<g fill="none" stroke="#ffffff" stroke-opacity="1" stroke-width="2" stroke-linecap="square" stroke-linejoin="bevel" transform="matrix(1,0,0,1,0,0)"
font-family="思源黑体" font-size="12" font-weight="400" font-style="normal" 
>
</g>

<g fill="none" stroke="#ffffff" stroke-opacity="1" stroke-width="2" stroke-linecap="square" stroke-linejoin="bevel" transform="matrix(0.104528,-0.994522,0.994522,0.104528,400,400)"
font-family="思源黑体" font-size="12" font-weight="400" font-style="normal" 
>
<polyline fill="none" vector-effect="none" points="0,-300 0,-290 " />
</g>

<g fill="none" stroke="#ffffff" stroke-opacity="1" stroke-width="2" stroke-linecap="square" stroke-linejoin="bevel" transform="matrix(1,0,0,1,0,0)"
font-family="思源黑体" font-size="12" font-weight="400" font-style="normal" 
>
</g>

<g fill="none" stroke="#ffffff" stroke-opacity="1" stroke-width="2" stroke-linecap="square" stroke-linejoin="bevel" transform="matrix(0.207912,-0.978148,0.978148,0.207912,400,400)"
font-family="思源黑体" font-size="12" font-weight="400" font-style="normal" 
>
<polyline fill="none" vector-effect="none" points="0,-300 0,-290 " />
</g>

<g fill="none" stroke="#ffffff" stroke-opacity="1" stroke-width="2" stroke-linecap="square" stroke-linejoin="bevel" transform="matrix(1,0,0,1,0,0)"
font-family="思源黑体" font-size="12" font-weight="400" font-style="normal" 
>
</g>

<g fill="none" stroke="#ffffff" stroke-opacity="1" stroke-width="2" stroke-linecap="square" stroke-linejoin="bevel" transform="matrix(0.309017,-0.951057,0.951057,0.309017,400,400)"
font-family="思源黑体" font-size="12" font-weight="400" font-style="normal" 
>
<polyline fill="none" vector-effect="none" points="0,-300 0,-290 " />
</g>

<g fill="none" stroke="#ffffff" stroke-opacity="1" stroke-width="2" stroke-linecap="square" stroke-linejoin="bevel" transform="matrix(1,0,0,1,0,0)"
font-family="思源黑体" font-size="12" font-weight="400" font-style="normal" 
>
</g>

<g fill="none" stroke="#ffffff" stroke-opacity="1" stroke-width="2" stroke-linecap="square" stroke-linejoin="bevel" transform="matrix(0.406737,-0.913545,0.913545,0.406737,400,400)"
font-family="思源黑体" font-size="12" font-weight="400" font-style="normal" 
>
<polyline fill="none" vector-effect="none" points="0,-300 0,-290 " />
</g>

<g fill="none" stroke="#ffffff" stroke-opacity="1" stroke-width="2" stroke-linecap="square" stroke-linejoin="bevel" transform="matrix(1,0,0,1,0,0)"
font-family="思源黑体" font-size="12" font-weight="400" font-style="normal" 
>
</g>

<g fill="none" stroke="#ffffff" stroke-opacity="1" stroke-width="2" stroke-linecap="square" stroke-linejoin="bevel" transform="matrix(0.5,-0.866025,0.866025,0.5,400,400)"
font-family="思源黑体" font-size="12" font-weight="400" font-style="normal" 
>
<polyline fill="none" vector-effect="none" points="0,-300 0,-280 " />
</g>

<g fill="none" stroke="#ffffff" stroke-opacity="1" stroke-width="2" stroke-linecap="square" stroke-linejoin="bevel" transform="matrix(0.5,-0.866025,0.866025,0.5,400,400)"
font-family="思源黑体" font-size="12" font-weight="400" font-style="normal" 
>
<text fill="#ffffff" fill-opacity="1" stroke="none" xml:space="preserve" x="-10.5" y="-260.5" font-family="思源黑体" font-size="12" font-weight="400" font-style="normal" 
 >300</text>
</g>

<g fill="none" stroke="#ffffff" stroke-opacity="1" stroke-width="2" stroke-linecap="square" stroke-linejoin="bevel" transform="matrix(1,0,0,1,0,0)"
font-family="思源黑体" font-size="12" font-weight="400" font-style="normal" 
>
</g>

<g fill="none" stroke="#ffffff" stroke-opacity="1" stroke-width="2" stroke-linecap="square" stroke-linejoin="bevel" transform="matrix(0.587785,-0.809017,0.809017,0.587785,400,400)"
font-family="思源黑体" font-size="12" font-weight="400" font-style="normal" 
>
<polyline fill="none" vector-effect="none" points="0,-300 0,-290 " />
</g>

<g fill="none" stroke="#ffffff" stroke-opacity="1" stroke-width="2" stroke-linecap="square" stroke-linejoin="bevel" transform="matrix(1,0,0,1,0,0)"
font-family="思源黑体" font-size="12" font-weight="400" font-style="normal" 
>
</g>

<g fill="none" stroke="#ffffff" stroke-opacity="1" stroke-width="2" stroke-linecap="square" stroke-linejoin="bevel" transform="matrix(0.669131,-0.743145,0.743145,0.669131,400,400)"
font-family="思源黑体" font-size="12" font-weight="400" font-style="normal" 
>
<polyline fill="none" vector-effect="none" points="0,-300 0,-290 " />
</g>

<g fill="none" stroke="#ffffff" stroke-opacity="1" stroke-width="2" stroke-linecap="square" stroke-linejoin="bevel" transform="matrix(1,0,0,1,0,0)"
font-family="思源黑体" font-size="12" font-weight="400" font-style="normal" 
>
</g>

<g fill="none" stroke="#ffffff" stroke-opacity="1" stroke-width="2" stroke-linecap="square" stroke-linejoin="bevel" transform="matrix(0.743145,-0.669131,0.669131,0.743145,400,400)"
font-family="思源黑体" font-size="12" font-weight="400" font-style="normal" 
>
<polyline fill="none" vector-effect="none" points="0,-300 0,-290 " />
</g>

<g fill="none" stroke="#ffffff" stroke-opacity="1" stroke-width="2" stroke-linecap="square" stroke-linejoin="bevel" transform="matrix(1,0,0,1,0,0)"
font-family="思源黑体" font-size="12" font-weight="400" font-style="normal" 
>
</g>

<g fill="none" stroke="#ffffff" stroke-opacity="1" stroke-width="2" stroke-linecap="square" stroke-linejoin="bevel" transform="matrix(0.809017,-0.587785,0.587785,0.809017,400,400)"
font-family="思源黑体" font-size="12" font-weight="400" font-style="normal" 
>
<polyline fill="none" vector-effect="none" points="0,-300 0,-290 " />
</g>

<g fill="none" stroke="#ffffff" stroke-opacity="1" stroke-width="2" stroke-linecap="square" stroke-linejoin="bevel" transform="matrix(1,0,0,1,0,0)"
font-family="思源黑体" font-size="12" font-weight="400" font-style="normal" 
>
</g>

<g fill="none" stroke="#ffffff" stroke-opacity="1" stroke-width="2" stroke-linecap="square" stroke-linejoin="bevel" transform="matrix(0.866025,-0.5,0.5,0.866025,400,400)"
font-family="思源黑体" font-size="12" font-weight="400" font-style="normal" 
>
<polyline fill="none" vector-effect="none" points="0,-300 0,-280 " />
</g>

<g fill="none" stroke="#ffffff" stroke-opacity="1" stroke-width="2" stroke-linecap="square" stroke-linejoin="bevel" transform="matrix(0.866025,-0.5,0.5,0.866025,400,400)"
font-family="思源黑体" font-size="12" font-weight="400" font-style="normal" 
>
<text fill="#ffffff" fill-opacity="1" stroke="none" xml:space="preserve" x="-10.5" y="-260.5" font-family="思源黑体" font-size="12" font-weight="400" font-style="normal" 
 >330</text>
</g>

<g fill="none" stroke="#ffffff" stroke-opacity="1" stroke-width="2" stroke-linecap="square" stroke-linejoin="bevel" transform="matrix(1,0,0,1,0,0)"
font-family="思源黑体" font-size="12" font-weight="400" font-style="normal" 
>
</g>

<g fill="none" stroke="#ffffff" stroke-opacity="1" stroke-width="2" stroke-linecap="square" stroke-linejoin="bevel" transform="matrix(0.913545,-0.406737,0.406737,0.913545,400,400)"
font-family="思源黑体" font-size="12" font-weight="400" font-style="normal" 
>
<polyline fill="none" vector-effect="none" points="0,-300 0,-290 " />
</g>

<g fill="none" stroke="#ffffff" stroke-opacity="1" stroke-width="2" stroke-linecap="square" stroke-linejoin="bevel" transform="matrix(1,0,0,1,0,0)"
font-family="思源黑体" font-size="12" font-weight="400" font-style="normal" 
>
</g>

<g fill="none" stroke="#ffffff" stroke-opacity="1" stroke-width="2" stroke-linecap="square" stroke-linejoin="bevel" transform="matrix(0.951057,-0.309017,0.309017,0.951057,400,400)"
font-family="思源黑体" font-size="12" font-weight="400" font-style="normal" 
>
<polyline fill="none" vector-effect="none" points="0,-300 0,-290 " />
</g>

<g fill="none" stroke="#ffffff" stroke-opacity="1" stroke-width="2" stroke-linecap="square" stroke-linejoin="bevel" transform="matrix(1,0,0,1,0,0)"
font-family="思源黑体" font-size="12" font-weight="400" font-style="normal" 
>
</g>

<g fill="none" stroke="#ffffff" stroke-opacity="1" stroke-width="2" stroke-linecap="square" stroke-linejoin="bevel" transform="matrix(0.978148,-0.207912,0.207912,0.978148,400,400)"
font-family="思源黑体" font-size="12" font-weight="400" font-style="normal" 
>
<polyline fill="none" vector-effect="none" points="0,-300 0,-290 " />
</g>

<g fill="none" stroke="#ffffff" stroke-opacity="1" stroke-width="2" stroke-linecap="square" stroke-linejoin="bevel" transform="matrix(1,0,0,1,0,0)"
font-family="思源黑体" font-size="12" font-weight="400" font-style="normal" 
>
</g>

<g fill="none" stroke="#ffffff" stroke-opacity="1" stroke-width="2" stroke-linecap="square" stroke-linejoin="bevel" transform="matrix(0.994522,-0.104528,0.104528,0.994522,400,400)"
font-family="思源黑体" font-size="12" font-weight="400" font-style="normal" 
>
<polyline fill="none" vector-effect="none" points="0,-300 0,-290 " />
</g>

<g fill="none" stroke="#ffffff" stroke-opacity="1" stroke-width="2" stroke-linecap="square" stroke-linejoin="bevel" transform="matrix(1,0,0,1,0,0)"
font-family="思源黑体" font-size="12" font-weight="400" font-style="normal" 
>
</g>
</g>
</svg>
